<svg width="38" height="37" viewBox="0 0 38 37" fill="none" xmlns="http://www.w3.org/2000/svg">
<path d="M12.7101 29.7923C12.7101 29.9454 12.5339 30.0678 12.3117 30.0678C12.0589 30.0907 11.8827 29.9683 11.8827 29.7923C11.8827 29.6393 12.0589 29.5169 12.281 29.5169C12.5109 29.494 12.7101 29.6164 12.7101 29.7923ZM10.3274 29.4481C10.2738 29.6011 10.427 29.777 10.6569 29.8229C10.856 29.8995 11.0859 29.8229 11.1319 29.6699C11.1778 29.5169 11.0323 29.3409 10.8024 29.2721C10.6032 29.2185 10.381 29.295 10.3274 29.4481ZM13.7137 29.318C13.4915 29.3716 13.3383 29.5169 13.3613 29.6929C13.3843 29.8459 13.5835 29.9454 13.8133 29.8918C14.0355 29.8383 14.1887 29.6929 14.1657 29.5399C14.1427 29.3945 13.9359 29.295 13.7137 29.318ZM18.7548 0C8.12863 0 0 8.05633 0 18.668C0 27.1528 5.34758 34.4135 12.9859 36.9688C13.9665 37.1448 14.3113 36.5404 14.3113 36.0431C14.3113 35.5687 14.2883 32.9521 14.2883 31.3455C14.2883 31.3455 8.9254 32.4931 7.79919 29.0655C7.79919 29.0655 6.92581 26.8391 5.66935 26.2653C5.66935 26.2653 3.91492 25.0641 5.79194 25.0871C5.79194 25.0871 7.6996 25.2401 8.74919 27.061C10.427 30.0142 13.2387 29.165 14.3343 28.66C14.5105 27.4359 15.0085 26.5866 15.5601 26.0817C11.2774 25.6073 6.95645 24.9876 6.95645 17.6275C6.95645 15.5235 7.53871 14.4677 8.76452 13.1212C8.56532 12.6239 7.91411 10.5735 8.96371 7.92626C10.5649 7.42896 14.25 9.99199 14.25 9.99199C15.7823 9.56354 17.4294 9.34167 19.0613 9.34167C20.6931 9.34167 22.3403 9.56354 23.8726 9.99199C23.8726 9.99199 27.5577 7.42131 29.1589 7.92626C30.2085 10.5811 29.5573 12.6239 29.3581 13.1212C30.5839 14.4754 31.3347 15.5312 31.3347 17.6275C31.3347 25.0106 26.8222 25.5997 22.5395 26.0817C23.2444 26.6861 23.8419 27.8337 23.8419 29.6317C23.8419 32.21 23.819 35.4004 23.819 36.0278C23.819 36.5251 24.1714 37.1295 25.1444 36.9535C32.8056 34.4134 38 27.1528 38 18.668C38 8.05633 29.381 0 18.7548 0ZM7.44677 26.3877C7.34718 26.4642 7.37016 26.6402 7.5004 26.7856C7.62298 26.908 7.79919 26.9615 7.89879 26.8621C7.99839 26.7856 7.9754 26.6096 7.84516 26.4642C7.72258 26.3418 7.54637 26.2883 7.44677 26.3877ZM6.61936 25.768C6.56573 25.8675 6.64234 25.9899 6.79556 26.0664C6.91815 26.1429 7.07137 26.1199 7.125 26.0128C7.17863 25.9134 7.10202 25.791 6.94879 25.7145C6.79556 25.6685 6.67298 25.6915 6.61936 25.768ZM9.10161 28.4917C8.97903 28.5912 9.025 28.8207 9.20121 28.9661C9.37742 29.142 9.5996 29.165 9.69919 29.0426C9.79879 28.9431 9.75282 28.7136 9.5996 28.5682C9.43105 28.3922 9.20121 28.3693 9.10161 28.4917ZM8.22823 27.367C8.10565 27.4435 8.10565 27.6425 8.22823 27.8184C8.35081 27.9944 8.55766 28.0709 8.65726 27.9944C8.77984 27.8949 8.77984 27.696 8.65726 27.5201C8.55 27.3441 8.35081 27.2676 8.22823 27.367Z" fill="#FBFDFF"/>
</svg>
