<svg width="23" height="31" viewBox="0 0 23 31" fill="none" xmlns="http://www.w3.org/2000/svg">
<g clip-path="url(#clip0)">
<path d="M10.3181 30.3746C1.61539 17.621 0 16.3121 0 11.625C0 5.20467 5.14871 0 11.5 0C17.8513 0 23 5.20467 23 11.625C23 16.3121 21.3846 17.621 12.6819 30.3746C12.1108 31.2085 10.8892 31.2085 10.3181 30.3746ZM11.5 16.4688C14.1464 16.4688 16.2917 14.3001 16.2917 11.625C16.2917 8.94986 14.1464 6.78125 11.5 6.78125C8.85362 6.78125 6.70833 8.94986 6.70833 11.625C6.70833 14.3001 8.85362 16.4688 11.5 16.4688Z" fill="#FBFDFF"/>
</g>
<defs>
<clipPath id="clip0">
<rect width="23" height="31" fill="white"/>
</clipPath>
</defs>
</svg>
