<svg width="43" height="43" viewBox="0 0 43 43" fill="none" xmlns="http://www.w3.org/2000/svg">
<path d="M35.1223 14.882C34.6688 14.7308 34.2152 14.5881 33.7617 14.4537C33.8373 14.143 33.9045 13.8322 33.9717 13.5215C35.0047 8.516 34.3244 4.49315 32.0316 3.1662C29.8229 1.89803 26.2199 3.21659 22.575 6.3912C22.2139 6.70194 21.8611 7.02948 21.5252 7.35702C21.2984 7.13866 21.0633 6.9203 20.8281 6.71034C17.0068 3.31737 13.1771 1.88964 10.8844 3.22499C8.68398 4.50155 8.02891 8.28925 8.95273 13.026C9.04512 13.4963 9.1459 13.9582 9.26348 14.4285C8.72598 14.5797 8.19687 14.7476 7.70137 14.924C3.2166 16.4777 0 18.9301 0 21.4664C0 24.0867 3.42656 26.7154 8.0877 28.3111C8.46562 28.4371 8.84355 28.5631 9.22988 28.6723C9.10391 29.1762 8.99473 29.6717 8.89395 30.184C8.01211 34.8451 8.70078 38.5404 10.9012 39.8086C13.1687 41.1187 16.9816 39.775 20.6938 36.5248C20.9877 36.2644 21.2816 35.9957 21.5756 35.7101C21.9451 36.0713 22.3314 36.4156 22.7178 36.7516C26.3123 39.8422 29.8648 41.0935 32.0568 39.8254C34.3244 38.5152 35.0635 34.5428 34.1061 29.7053C34.0305 29.3357 33.9465 28.9578 33.8541 28.5715C34.1229 28.4959 34.3832 28.4119 34.6436 28.3279C39.4895 26.7238 43 24.1287 43 21.4664C43 18.9217 39.691 16.4525 35.1223 14.882ZM23.7592 7.75175C26.8834 5.03065 29.7977 3.96405 31.1246 4.72831C32.5439 5.54296 33.0898 8.83514 32.1996 13.1603C32.1408 13.4459 32.082 13.723 32.0064 14.0002C30.142 13.5803 28.2523 13.2779 26.3543 13.11C25.2625 11.5478 24.0699 10.0529 22.7766 8.65038C23.1041 8.33964 23.4232 8.04569 23.7592 7.75175ZM14.0422 25.8252C14.4705 26.5558 14.9072 27.2865 15.3691 28.0004C14.059 27.8576 12.7572 27.6476 11.4723 27.3705C11.8418 26.1611 12.3037 24.9098 12.8412 23.6332C13.2275 24.3723 13.6223 25.1029 14.0422 25.8252ZM11.4975 15.7219C12.7068 15.4531 13.9918 15.2348 15.3271 15.0668C14.882 15.7639 14.4453 16.4777 14.0338 17.2C13.6223 17.9139 13.2191 18.6445 12.8412 19.3836C12.3121 18.1322 11.867 16.906 11.4975 15.7219ZM13.7986 21.5084C14.3529 20.3494 14.9576 19.2156 15.5959 18.0986C16.2342 16.9816 16.9229 15.8982 17.6451 14.8316C18.9049 14.7392 20.1898 14.6889 21.5 14.6889C22.8102 14.6889 24.1035 14.7392 25.3549 14.8316C26.0688 15.8898 26.749 16.9732 27.3957 18.0818C28.0424 19.1904 28.6471 20.3242 29.2182 21.4748C28.6555 22.6338 28.0508 23.776 27.4041 24.9014C26.7658 26.0183 26.0855 27.1017 25.3717 28.1767C24.1203 28.2691 22.8186 28.3111 21.5 28.3111C20.1814 28.3111 18.9049 28.2691 17.6703 28.1935C16.9396 27.1269 16.251 26.0351 15.6043 24.9182C14.9576 23.8012 14.3613 22.6674 13.7986 21.5084ZM28.9662 25.8084C29.3945 25.0693 29.7977 24.3219 30.1924 23.566C30.7299 24.7838 31.2002 26.0183 31.6117 27.2865C30.31 27.5805 28.9914 27.8072 27.6645 27.9584C28.118 27.2529 28.5463 26.5307 28.9662 25.8084ZM30.1756 19.3836C29.7809 18.6445 29.3777 17.9055 28.9578 17.1832C28.5463 16.4693 28.118 15.7639 27.6729 15.0668C29.025 15.2348 30.3184 15.4615 31.5277 15.7387C31.1414 16.9816 30.6879 18.191 30.1756 19.3836ZM21.5168 9.93534C22.3986 10.8928 23.2301 11.9006 24.0027 12.942C22.3398 12.8664 20.6686 12.8664 19.0057 12.942C19.8287 11.8586 20.677 10.8508 21.5168 9.93534ZM11.7746 4.7871C13.1855 3.96405 16.3182 5.13983 19.6187 8.06249C19.8287 8.24725 20.0387 8.44882 20.257 8.65038C18.9553 10.0529 17.7543 11.5478 16.6541 13.11C14.7561 13.2779 12.8748 13.5719 11.0104 13.9834C10.9012 13.5551 10.8088 13.1183 10.7164 12.6816C9.92695 8.61678 10.4477 5.55135 11.7746 4.7871ZM9.71699 26.9254C9.36426 26.8246 9.01992 26.7154 8.67559 26.5978C6.88672 26.0351 4.8543 25.1449 3.38457 23.9775C2.53633 23.3896 1.96523 22.4826 1.80566 21.4664C1.80566 19.9295 4.45957 17.9642 8.28926 16.6289C8.76797 16.4609 9.25508 16.3098 9.74219 16.167C10.3133 17.9894 11.002 19.7783 11.7998 21.5084C10.9936 23.2637 10.2965 25.0777 9.71699 26.9254ZM19.5096 35.1558C18.1238 36.424 16.5197 37.4318 14.7729 38.1205C13.8406 38.5656 12.7656 38.6076 11.8082 38.2297C10.4729 37.457 9.91855 34.4924 10.6744 30.5031C10.7668 30.0328 10.8676 29.5625 10.9852 29.1006C12.8664 29.5037 14.7645 29.7808 16.6877 29.9236C17.7963 31.4941 19.0141 32.9975 20.3158 34.4084C20.0471 34.6687 19.7783 34.9207 19.5096 35.1558ZM21.5672 33.115C20.7105 32.1912 19.8539 31.1666 19.0225 30.0664C19.8287 30.1 20.6602 30.1168 21.5 30.1168C22.365 30.1168 23.2133 30.1 24.0531 30.058C23.2805 31.1246 22.449 32.1408 21.5672 33.115ZM32.5439 35.6346C32.4684 36.6592 31.9645 37.6166 31.1582 38.2633C29.8229 39.0359 26.9758 38.0281 23.902 35.391C23.5492 35.0887 23.1965 34.7611 22.8354 34.4252C24.1203 33.0058 25.3045 31.5025 26.3795 29.9236C28.3027 29.7641 30.2176 29.4701 32.1072 29.0418C32.1912 29.3861 32.2668 29.7305 32.334 30.0664C32.7455 31.8805 32.8127 33.7701 32.5439 35.6346ZM34.0725 26.6062C33.8373 26.6818 33.6021 26.7574 33.3586 26.8246C32.7707 24.9937 32.0484 23.2049 31.217 21.4664C32.0232 19.7531 32.7035 17.9894 33.2746 16.1838C33.7113 16.3098 34.1313 16.4441 34.5344 16.5785C38.448 17.9223 41.1943 19.9211 41.1943 21.4496C41.1943 23.0957 38.2633 25.2205 34.0725 26.6062ZM21.5 25.3465C23.6248 25.3465 25.3465 23.6248 25.3465 21.5C25.3465 19.3752 23.6248 17.6535 21.5 17.6535C19.3752 17.6535 17.6535 19.3752 17.6535 21.5C17.6535 23.6248 19.3752 25.3465 21.5 25.3465Z" fill="#61DAFB"/>
</svg>
