<svg width="35" height="33" viewBox="0 0 35 33" fill="none" xmlns="http://www.w3.org/2000/svg">
<g clip-path="url(#clip0)">
<path d="M24.2513 22.9567C25.5429 22.8244 26.5228 21.7231 26.4782 20.4013C26.4338 19.0796 25.3202 18.0222 23.984 18.0222H23.895C22.5142 18.0663 21.4453 19.2118 21.4899 20.5775C21.5344 21.2384 21.8016 21.8111 22.2024 22.2076C20.6882 25.1595 18.3721 27.3183 14.8981 29.1246C12.5375 30.3583 10.0879 30.7989 7.63834 30.4905C5.63404 30.2261 4.07518 29.3451 3.09518 27.891C1.67002 25.7323 1.53644 23.3972 2.73902 21.0622C3.58531 19.388 4.92133 18.1544 5.76762 17.5375C5.58947 16.9648 5.32219 15.9956 5.18861 15.2908C-1.26957 19.9167 -0.601428 26.1729 1.3583 29.1246C2.82803 31.3276 5.81219 32.6934 9.10807 32.6934C9.99879 32.6934 10.8895 32.6052 11.7804 32.385C17.4814 31.2835 21.8017 27.9351 24.2513 22.9567ZM32.0902 17.4936C28.7052 13.5725 23.7169 11.4137 18.0158 11.4137H17.3033C16.9024 10.6207 16.0561 10.0919 15.1208 10.0919H15.0317C13.6511 10.136 12.5822 11.2814 12.6267 12.6473C12.6712 13.969 13.7847 15.0264 15.1208 15.0264H15.2098C16.1897 14.9823 17.036 14.3655 17.3923 13.5284H18.194C21.579 13.5284 24.7857 14.4976 27.6809 16.3921C29.9078 17.846 31.5112 19.7405 32.4019 22.0314C33.1591 23.8818 33.1145 25.6882 32.3128 27.2303C31.0658 29.5652 28.9725 30.8429 26.211 30.8429C24.4295 30.8429 22.737 30.3142 21.8462 29.9177C21.3563 30.3583 20.4654 31.0631 19.8419 31.5038C21.7572 32.3849 23.7169 32.8696 25.5875 32.8696C29.8632 32.8696 33.0255 30.5345 34.2281 28.1995C35.5197 25.6441 35.4305 21.2384 32.0902 17.4936ZM9.46436 23.7055C9.50893 25.0273 10.6224 26.0846 11.9585 26.0846H12.0477C13.4284 26.0406 14.4972 24.895 14.4527 23.5293C14.4082 22.2075 13.2947 21.1502 11.9585 21.1502H11.8695C11.7804 21.1502 11.6467 21.1502 11.5578 21.1942C9.73164 18.1983 8.97449 14.9382 9.24178 11.4136C9.41979 8.77011 10.3106 6.47909 11.8695 4.58458C13.1611 2.95445 15.6553 2.16143 17.3478 2.11748C22.0689 2.02931 24.073 7.84483 24.2067 10.1799C24.7857 10.3121 25.7656 10.6205 26.4338 10.8408C25.8992 3.70366 21.4453 0.00280762 17.1697 0.00280762C13.1611 0.00280762 9.46436 2.86655 7.99449 7.09603C5.94576 12.7353 7.28191 18.1544 9.77608 22.4279C9.5535 22.7363 9.41979 23.2209 9.46436 23.7056V23.7055Z" fill="#B29DD3"/>
</g>
<defs>
<clipPath id="clip0">
<rect width="35" height="33" fill="white"/>
</clipPath>
</defs>
</svg>
