<svg width="48" height="36" viewBox="0 0 48 36" fill="none" xmlns="http://www.w3.org/2000/svg">
<path d="M22.638 27.2165C22.6155 27.2615 22.593 27.2975 22.638 27.2165V27.2165ZM41.323 20.692C39.8145 20.6915 38.3261 21.0379 36.9729 21.7044C36.5304 20.812 36.0729 20.032 35.9979 19.4471C35.9079 18.7647 35.8104 18.3597 35.9154 17.5498C36.0204 16.7398 36.4929 15.5924 36.4854 15.5099C36.4779 15.4274 36.3804 15.015 35.4129 15.0075C34.4454 15 33.6129 15.1949 33.5161 15.4499C33.3452 15.9159 33.2123 16.3949 33.1186 16.8823C32.9461 17.7597 31.1843 20.8945 30.1868 22.5293C29.8568 21.8919 29.5793 21.3294 29.5193 20.8795C29.4293 20.197 29.3318 19.7921 29.4368 18.9821C29.5418 18.1722 30.0143 17.0248 30.0068 16.9423C29.9993 16.8598 29.9018 16.4473 28.9351 16.4398C27.9683 16.4323 27.135 16.6273 27.0375 16.8823C26.94 17.1373 26.835 17.7372 26.64 18.3147C26.445 18.8921 24.0983 24.1117 23.484 25.4691C23.169 26.159 22.899 26.714 22.704 27.089C22.674 27.149 22.6515 27.1865 22.6365 27.2165C22.659 27.179 22.674 27.1415 22.674 27.1565C22.509 27.4789 22.4115 27.6589 22.4115 27.6589V27.6664C22.284 27.9064 22.1415 28.1239 22.074 28.1239C22.029 28.1239 21.9315 27.4939 22.0965 26.6315C22.449 24.8167 23.2815 21.9969 23.274 21.8994C23.2665 21.8469 23.4315 21.3594 22.7265 21.097C22.044 20.8495 21.7965 21.2619 21.7365 21.2619C21.6765 21.2619 21.6315 21.4119 21.6315 21.4119C21.6315 21.4119 22.389 18.2322 20.1772 18.2322C18.7972 18.2322 16.8772 19.7471 15.9337 21.1195C15.3412 21.4419 14.0586 22.1394 12.7086 22.8818C12.1911 23.1668 11.6586 23.4593 11.1561 23.7367C11.1186 23.6992 11.0886 23.6618 11.0511 23.6243C8.36683 20.7595 3.41077 18.7347 3.62077 14.8875C3.69578 13.4851 4.18328 9.80288 13.1511 5.33325C20.5012 1.67355 26.3775 2.67846 27.3893 4.91328C28.8443 8.10052 24.2475 14.0325 16.6147 14.8875C13.7054 15.2099 12.1761 14.085 11.7936 13.6651C11.3961 13.2226 11.3361 13.2001 11.1861 13.2826C10.9386 13.4176 11.0961 13.8076 11.1861 14.04C11.4111 14.6325 12.3486 15.6824 13.9454 16.2074C15.3479 16.6648 18.7589 16.9198 22.8832 15.3224C27.5168 13.5376 31.1236 8.56548 30.0661 4.40332C28.9891 0.173668 21.975 -1.21372 15.3427 1.14109C11.3909 2.54347 7.11732 4.74829 4.04303 7.62056C0.391237 11.0403 -0.193019 14.0175 0.0469833 15.2624C0.901243 19.6796 6.98981 22.5593 9.42659 24.6892C9.30659 24.7567 9.19409 24.8167 9.08909 24.8767C7.86732 25.4841 3.22552 27.9139 2.06376 30.4787C0.751242 33.3885 2.28126 35.4733 3.28552 35.7583C6.41981 36.6282 9.6291 35.0608 11.3534 32.4885C13.0776 29.9162 12.8684 26.5565 12.0734 25.0266C12.0659 25.0041 12.0509 24.9891 12.0434 24.9666C12.3584 24.7792 12.6809 24.5917 13.0034 24.4042C13.6251 24.0367 14.2326 23.6992 14.7652 23.4068C14.4652 24.2167 14.2476 25.1916 14.1351 26.6015C14.0001 28.2514 14.6827 30.3887 15.5677 31.2286C15.9577 31.5961 16.4294 31.6036 16.7219 31.6036C17.7569 31.6036 18.2219 30.7487 18.7387 29.7288C19.3762 28.4839 19.9387 27.0365 19.9387 27.0365C19.9387 27.0365 19.2337 30.9512 21.1612 30.9512C21.8655 30.9512 22.5705 30.0437 22.8862 29.5788V29.5863C22.8862 29.5863 22.9012 29.5563 22.9387 29.4963C23.0138 29.3838 23.0513 29.3163 23.0513 29.3163V29.2938C23.3363 28.8063 23.9588 27.6889 24.8955 25.8441C26.1105 23.4593 27.2723 20.482 27.2723 20.482C27.3846 21.1365 27.5399 21.7828 27.7373 22.4169C27.9473 23.1293 28.3898 23.9092 28.7423 24.6667C28.4573 25.0566 28.2848 25.2816 28.2848 25.2816C28.2854 25.2874 28.288 25.2927 28.2923 25.2966C28.0673 25.5966 27.8123 25.9191 27.5498 26.234C26.5905 27.374 25.4498 28.6788 25.2998 29.0538C25.1198 29.4963 25.1648 29.8263 25.5098 30.0812C25.7648 30.2762 26.2148 30.3062 26.6865 30.2687C27.5491 30.2087 28.1566 29.9987 28.4491 29.8637C28.9883 29.6704 29.498 29.4028 29.9633 29.0688C30.9008 28.3789 31.4708 27.389 31.4183 26.0841C31.3883 25.3641 31.1558 24.6442 30.8708 23.9692C30.9533 23.8492 31.0433 23.7217 31.1258 23.5943C32.6101 21.4269 33.7576 19.0481 33.7576 19.0481C33.8699 19.7026 34.0252 20.349 34.2226 20.983C34.4026 21.5904 34.7544 22.2579 35.0769 22.9103C33.6826 24.0427 32.8201 25.3551 32.5201 26.2175C31.9651 27.8149 32.4001 28.5349 33.2176 28.6998C33.5851 28.7748 34.1101 28.6024 34.5001 28.4374C35.0793 28.2445 35.6255 27.9637 36.1194 27.6049C37.0569 26.915 37.9637 25.9476 37.9037 24.6352C37.8812 24.0427 37.7162 23.4503 37.4987 22.8803C38.6762 22.3854 40.2055 22.1154 42.1555 22.3404C46.3315 22.8278 47.149 25.4376 46.9915 26.525C46.834 27.6124 45.9565 28.2199 45.664 28.3999C45.3715 28.5799 45.2815 28.6473 45.304 28.7823C45.3415 28.9773 45.4765 28.9698 45.724 28.9248C46.069 28.8648 47.9133 28.0399 47.9958 26.0226C48.1158 23.4728 45.664 20.668 41.3207 20.6905L41.323 20.692ZM9.13409 31.5436C7.75482 33.051 5.8198 33.6209 4.98804 33.141C4.09553 32.622 4.44803 30.4037 6.1498 28.7973C7.18482 27.8224 8.51908 26.9225 9.40409 26.3675C9.6066 26.2475 9.8991 26.0676 10.2591 25.8501C10.3191 25.8126 10.3491 25.7976 10.3491 25.7976C10.4166 25.7526 10.4916 25.7151 10.5666 25.6701C11.1884 27.9499 10.5891 29.9597 9.13409 31.5421V31.5436ZM19.2112 24.6892C18.7312 25.8666 17.7194 28.8663 17.1044 28.7088C16.5794 28.5739 16.2569 26.2865 16.9994 24.0367C17.3744 22.9043 18.1694 21.5544 18.6419 21.0295C19.3987 20.182 20.2312 19.9121 20.4262 20.2495C20.6887 20.692 19.5112 23.9542 19.2112 24.6892ZM27.5363 28.6638C27.3338 28.7688 27.1463 28.8363 27.0563 28.7838C26.9888 28.7463 27.1388 28.6039 27.1388 28.6039C27.1388 28.6039 28.1813 27.4864 28.5938 26.9765C28.8338 26.6765 29.1113 26.324 29.4106 25.9341C29.4106 25.9716 29.4181 26.0091 29.4181 26.0541C29.4083 27.3965 28.1191 28.3039 27.5341 28.6638H27.5363ZM33.9549 27.2015C33.8049 27.0965 33.8274 26.744 34.3299 25.6491C34.5249 25.2216 34.9741 24.5017 35.7549 23.8117C35.8433 24.0729 35.8913 24.346 35.8974 24.6217C35.8899 26.309 34.6824 26.939 33.9556 27.2015H33.9549Z" fill="#CF649A"/>
</svg>
